<svg xmlns="http://www.w3.org/2000/svg" width="196.77" height="118.09" viewBox="0 0 196.77 118.09">
  <g id="Grupo_1" data-name="Grupo 1" transform="translate(-197.006 -360.13)">
    <path id="Trazado_1" data-name="Trazado 1" d="M223.05,445.711V434.775l24,.382c19.445.272,35.318-15.9,35.318-35.345v-3.982c0-19.445-15.873-35.045-35.318-35.345l-24-.354H197.006v27.354h.027c2.7-.409,5.264-.845,7.418-1.39,1.2-.273,2.1-.709,3.163-.982a1.217,1.217,0,0,1,.3.409,7.3,7.3,0,0,0,3.055,3.055,18.234,18.234,0,0,0,5.564,2.373c-.382-.463-1.718-1.2-2.728-2.154a17.911,17.911,0,0,1-2.072-2.373c-.682-.927-3.083-4.309-1.583-5.918.6-.082,8.155,3.027,10.637,2.945l-4.146-1.936c.682-1.391,5.754-3.873,7.363-4.173,2.591-.437,6.764-.083,9.655.054,10.227.546,12.191,2.809,21.928,5.209-.546,2.4.763,3.819,1.636,5.182,1.637,2.591-2.263,3.191-3.027,3.41-5.045,1.582-10.254,4.418-13.336,9.027-1.555,2.346-1.582,3.273-1.718,6.136a17.208,17.208,0,0,0,1.255,8.373c.354.763,1.445,1.308.791,2.454-1.637-.055-.164-.409-2.618.164a10.708,10.708,0,0,1-2.482.409c-1.8.082-4.254-.572-5.209-1.991.546-.6,1.8-1.255,1.609-2.619a3.15,3.15,0,0,0-2.264-2.263c-4.118-1.173-11.045,3.218-14.427,5.509a56.689,56.689,0,0,0-11.672,10.473,24.254,24.254,0,0,0-3.764,5.945c-.572,1.118-2.645,5.509-3.354,6.437v20.645a22.38,22.38,0,0,1,2.781-3.981c8.154-9.6,20.972-10.173,23.263-10.2ZM198.67,421.329c1.418-2.127,4.609-4.772,6.436-6.136a51.6,51.6,0,0,1,15.682-7.445c1.636-.491,7.254-1.855,9.054-1.663-2.946.791-5.727,1.39-8.537,2.373a75.406,75.406,0,0,0-8.127,3.19c-1.473.791-4.146,1.992-5.673,2.973a55.941,55.941,0,0,0-7.146,5.209c-.627.546-1.2,1.119-1.69,1.5Zm45.872-38.563a8.4,8.4,0,0,0,.927-.572l-.818,1.255.763.709.927-.736a2.892,2.892,0,0,1,1.064-.655c-.546.792-1.2.9-1.582,1.882l.464.682c.845-.464,1.609-1.445,2.618-1.609-.218.191-.654.709-1.091,1.063a4.33,4.33,0,0,0-1.118,1.146c-.164.382-.164.681-.3,1.063a2.291,2.291,0,0,1-1.2,1.391c-.737.3-.573,0-.164-.355.818-.791,1.336-1.554.572-2.781a8.783,8.783,0,0,0-3.273-2.454,14.048,14.048,0,0,1-1.527-.9c-1.363-.981-.927-1.008.464-.9a18.332,18.332,0,0,1,2.618.382c.736.164.546.572.654,1.39Zm13.145,4.8c-.681-.736-2.045-3.3-1.527-4.8a7.875,7.875,0,0,1,2.918.874,11.434,11.434,0,0,1-1.391,3.926Zm-3.927,9.409c-.164-2.482.819-1.527-.736-4.473.546-.382,1.336-1.063,2.264-.791.682,1.363-.109,4.636-1.528,5.264Zm-12.845,16.936a17.811,17.811,0,0,1,1.964-.3,17.579,17.579,0,0,0,1.964-.572c-1.39,2.945-4.254,3.273-3.927.873Z" transform="translate(0 0)" fill="#040405" fill-rule="evenodd"/>
    <path id="Trazado_2" data-name="Trazado 2" d="M198.588,481.721c2.454-.109,12.927-.981,18.49-7.528,6.328-7.445,5.973-21.654,5.973-21.654s-13.036-.354-21.054,9.055a21.023,21.023,0,0,0-4.309,18.982,75.759,75.759,0,0,1,4.91-8.318c.626-.927-.492-3.491-.655-4.745a9.689,9.689,0,0,1,.437-4.309.665.665,0,0,1,.845-.382.679.679,0,0,1,.382.846,8.3,8.3,0,0,0-.382,3.681,20.884,20.884,0,0,0,.627,3.164c1.773-2.373,3.628-3.328,3.628-5.455a16.934,16.934,0,0,1,.791-4.118c.845-3,2.018-3.409,2.018-3.409a.662.662,0,0,1,.327,1.282s-.436.19-1.09,2.482a16.363,16.363,0,0,0-.737,3.709c.327-.273.627-.546.954-.819a91.043,91.043,0,0,0,11.592-10.718.651.651,0,0,1,.927-.055.618.618,0,0,1,.055.9,94.979,94.979,0,0,1-11.754,10.908,26.662,26.662,0,0,0-3.464,3.355,30.888,30.888,0,0,0,3.954-.19,30.094,30.094,0,0,0,4.5-1.173.629.629,0,0,1,.818.409.639.639,0,0,1-.409.818,31.428,31.428,0,0,1-4.718,1.255c-4.582.655-4.527-.572-5.754.954a39.539,39.539,0,0,0-2.7,3.655h.055a18.1,18.1,0,0,0,4.772.027,17.036,17.036,0,0,0,6.055-1.555.659.659,0,0,1,.6,1.173,19.862,19.862,0,0,1-6.545,1.691,18.785,18.785,0,0,1-5.292-.082,1.222,1.222,0,0,1-.3-.218c-1.582,2.564-2.809,4.882-3.545,6.382Z" transform="translate(0 -3.501)" fill="#040405" fill-rule="evenodd"/>
    <path id="Trazado_3" data-name="Trazado 3" d="M328.392,360.13a26.717,26.717,0,0,1,11.182,2.182,16.4,16.4,0,0,1,7.364,6.218,18.8,18.8,0,0,1,0,18.954,16.563,16.563,0,0,1-7.364,6.218,26.723,26.723,0,0,1-11.182,2.155H321.71V407.5H306.083V360.13Zm-.981,23.427a6.779,6.779,0,0,0,4.745-1.473,5.222,5.222,0,0,0,1.609-4.091,5.3,5.3,0,0,0-1.609-4.091,6.77,6.77,0,0,0-4.745-1.445h-5.7v11.1Zm47.727,25.036c-7.091,0-12.655-1.964-16.609-5.891q-5.973-5.891-5.973-16.527V360.13h15.628v25.582c0,3.464.6,6,1.827,7.581a7.025,7.025,0,0,0,10.527,0c1.2-1.582,1.827-4.118,1.827-7.581V360.13h15.354v26.045q0,10.636-5.973,16.527-5.931,5.891-16.609,5.891Z" transform="translate(-4.133 0)" fill="#040405"/>
    <path id="Trazado_4" data-name="Trazado 4" d="M337.965,432.951a11.834,11.834,0,0,1,5.481,3.9,10,10,0,0,1,1.937,6.163,9.409,9.409,0,0,1-4.336,8.291q-4.337,2.945-12.518,2.946H306.083V413.506h21.3c5.319,0,9.328.954,12.054,2.918a9.065,9.065,0,0,1,4.064,7.746,9.546,9.546,0,0,1-1.391,5.1,9.968,9.968,0,0,1-4.145,3.681Zm-18.682-9.845v6.055h6.273c2.918,0,4.391-1.009,4.391-3.027s-1.473-3.028-4.391-3.028Zm8.1,21.546c2.973,0,4.446-1.064,4.446-3.191,0-2.154-1.473-3.217-4.446-3.217h-8.1v6.409Zm22.336-31.145h13.445v30.109h18v10.636H349.719Zm34.745,0h13.446v40.745H384.463Z" transform="translate(-4.133 -2.022)" fill="#040405"/>
    <path id="Trazado_5" data-name="Trazado 5" d="M318.082,481.96a12.856,12.856,0,0,1-6.163-1.473,10.847,10.847,0,0,1-4.282-4.091,12.308,12.308,0,0,1,0-11.973,10.86,10.86,0,0,1,4.282-4.091,12.866,12.866,0,0,1,6.163-1.472,13.161,13.161,0,0,1,5.618,1.145,10.605,10.605,0,0,1,4.064,3.273l-4.582,4.2a5.892,5.892,0,0,0-4.718-2.591,4.85,4.85,0,0,0-3.682,1.5,6.616,6.616,0,0,0,0,8.045,4.753,4.753,0,0,0,3.682,1.5,5.9,5.9,0,0,0,4.718-2.591l4.582,4.2a10.605,10.605,0,0,1-4.064,3.273,13.175,13.175,0,0,1-5.618,1.145Zm22.336,0a12.813,12.813,0,0,1-6.245-1.5,10.818,10.818,0,0,1-4.337-4.091,11.965,11.965,0,0,1,0-11.891,10.7,10.7,0,0,1,4.337-4.118,13.809,13.809,0,0,1,12.518,0,10.7,10.7,0,0,1,4.336,4.118,11.965,11.965,0,0,1,0,11.891,10.822,10.822,0,0,1-4.336,4.091,12.852,12.852,0,0,1-6.273,1.5Zm0-6.027a4.373,4.373,0,0,0,2.454-.682,4.927,4.927,0,0,0,1.745-1.909,6.3,6.3,0,0,0,.655-2.918,6.142,6.142,0,0,0-.655-2.919,4.823,4.823,0,0,0-1.745-1.936,4.708,4.708,0,0,0-4.882,0,4.824,4.824,0,0,0-1.745,1.936,6.143,6.143,0,0,0-.654,2.919,6.3,6.3,0,0,0,.654,2.918,4.928,4.928,0,0,0,1.745,1.909,4.346,4.346,0,0,0,2.427.682Zm35.809-16.555v22.063h-5.973l-8.182-10.009v10.009h-7.091V459.379h5.973l8.182,10.037V459.379Zm7.936,5.754h-6.328v-5.754h19.909v5.754h-6.327v16.309h-7.254Z" transform="translate(-4.133 -3.741)" fill="#040405"/>
  </g>
</svg>
